<svg width="26" height="26" viewBox="0 0 26 26" fill="none" xmlns="http://www.w3.org/2000/svg">
<path d="M24.0463 10.1408C24.3246 9.35061 24.4766 8.50134 24.4766 7.61719C24.4766 3.41707 21.0595 0 16.8594 0H7.61719C3.41707 0 0 3.41707 0 7.61719C0 9.5712 0.739984 11.3554 1.95396 12.7053C1.66842 13.5152 1.52344 14.3636 1.52344 15.2344C1.52344 19.4625 4.94051 22.9023 9.14062 22.9023H12.7683L17.197 25.871C17.3224 25.9551 17.4701 26 17.6212 26C17.8232 26 18.0169 25.9197 18.1597 25.7769C18.3026 25.634 18.3828 25.4403 18.3828 25.2383V22.9023H19.1169C19.2346 22.9023 19.3461 22.8756 19.4456 22.828C23.1443 22.3058 26 19.0994 26 15.2344C26 13.3303 25.3096 11.5406 24.0463 10.1408ZM1.52344 7.61719C1.52344 4.25709 4.25709 1.52344 7.61719 1.52344H16.8594C20.2195 1.52344 22.9531 4.25709 22.9531 7.61719C22.9531 10.9773 20.2195 13.7109 16.8594 13.7109H13C12.8509 13.7109 12.7051 13.7547 12.5807 13.8367L9.14062 16.1049V14.4727C9.14062 14.052 8.79958 13.7109 8.37891 13.7109H7.61719C4.25709 13.7109 1.52344 10.9773 1.52344 7.61719ZM18.3829 21.3789H17.6211C17.2004 21.3789 16.8594 21.72 16.8594 22.1406V23.8107L13.4242 21.5079C13.2987 21.4238 13.1511 21.3789 13 21.3789H9.14062C5.78053 21.3789 3.04688 18.6225 3.04688 15.2344C3.04641 14.7602 3.1012 14.2877 3.21014 13.8262C4.18184 14.518 5.32182 14.9879 6.55591 15.1607C6.65813 15.2094 6.76994 15.2346 6.88314 15.2344H7.61719V17.5196C7.61719 17.6571 7.65443 17.7921 7.72496 17.9102C7.79549 18.0283 7.89667 18.1251 8.01778 18.1903C8.13888 18.2555 8.27538 18.2867 8.41278 18.2806C8.55019 18.2744 8.68338 18.2312 8.79821 18.1555L13.2285 15.2344H16.8594C19.5777 15.2344 21.9676 13.8027 23.3159 11.6542C24.0699 12.6874 24.4766 13.9273 24.4766 15.2344C24.4766 18.6224 21.743 21.3789 18.3829 21.3789Z" fill="#737791"/>
<path d="M7.61719 6.09375C6.77716 6.09375 6.09375 6.77716 6.09375 7.61719C6.09375 8.45721 6.77716 9.14062 7.61719 9.14062C8.45721 9.14062 9.14062 8.45721 9.14062 7.61719C9.14062 6.77716 8.45721 6.09375 7.61719 6.09375ZM12.2383 6.09375C11.3983 6.09375 10.7148 6.77716 10.7148 7.61719C10.7148 8.45721 11.3983 9.14062 12.2383 9.14062C13.0783 9.14062 13.7617 8.45721 13.7617 7.61719C13.7617 6.77716 13.0783 6.09375 12.2383 6.09375ZM16.8594 6.09375C16.0194 6.09375 15.3359 6.77716 15.3359 7.61719C15.3359 8.45721 16.0194 9.14062 16.8594 9.14062C17.6994 9.14062 18.3828 8.45721 18.3828 7.61719C18.3828 6.77716 17.6994 6.09375 16.8594 6.09375Z" fill="#737791"/>
</svg>
