<svg width="20" height="21" viewBox="0 0 20 21" fill="none" xmlns="http://www.w3.org/2000/svg">
<path d="M7.63411 9.55817C7.55078 9.54984 7.45078 9.54984 7.35911 9.55817C5.37578 9.4915 3.80078 7.8665 3.80078 5.8665C3.80078 3.82484 5.45078 2.1665 7.50078 2.1665C9.54245 2.1665 11.2008 3.82484 11.2008 5.8665C11.1924 7.8665 9.61745 9.4915 7.63411 9.55817Z" stroke="#464646" stroke-width="1.5" stroke-linecap="round" stroke-linejoin="round"/>
<path opacity="0.4" d="M13.6747 3.8335C15.2914 3.8335 16.5914 5.14183 16.5914 6.75016C16.5914 8.32516 15.3414 9.6085 13.7831 9.66683C13.7164 9.6585 13.6414 9.6585 13.5664 9.66683" stroke="#464646" stroke-width="1.5" stroke-linecap="round" stroke-linejoin="round"/>
<path d="M3.46758 12.6335C1.45091 13.9835 1.45091 16.1835 3.46758 17.5252C5.75924 19.0585 9.51758 19.0585 11.8092 17.5252C13.8259 16.1752 13.8259 13.9752 11.8092 12.6335C9.52591 11.1085 5.76758 11.1085 3.46758 12.6335Z" stroke="#464646" stroke-width="1.5" stroke-linecap="round" stroke-linejoin="round"/>
<path opacity="0.4" d="M15.2832 17.1665C15.8832 17.0415 16.4499 16.7998 16.9165 16.4415C18.2165 15.4665 18.2165 13.8582 16.9165 12.8832C16.4582 12.5332 15.8999 12.2998 15.3082 12.1665" stroke="#464646" stroke-width="1.5" stroke-linecap="round" stroke-linejoin="round"/>
</svg>
