<svg width="12" height="12" viewBox="0 0 12 12" fill="none" xmlns="http://www.w3.org/2000/svg">
<path d="M11 6C11 8.76144 8.76144 11 6 11M11 6C11 3.23858 8.76144 1 6 1M11 6C11 6.9205 8.76144 7.66667 6 7.66667C3.23858 7.66667 1 6.9205 1 6M11 6C11 5.0795 8.76144 4.33333 6 4.33333C3.23858 4.33333 1 5.0795 1 6M6 11C3.23858 11 1 8.76144 1 6M6 11C5.0795 11 4.33333 8.76144 4.33333 6C4.33333 3.23858 5.0795 1 6 1M6 11C6.9205 11 7.66667 8.76144 7.66667 6C7.66667 3.23858 6.9205 1 6 1M6 1C3.23858 1 1 3.23858 1 6" stroke="white" stroke-width="1.5" stroke-linecap="round" stroke-linejoin="round"/>
</svg>
