<svg width="23" height="23" viewBox="0 0 23 23" fill="none" xmlns="http://www.w3.org/2000/svg">
<path fill-rule="evenodd" clip-rule="evenodd" d="M9.88263 0.366657C10.9054 -0.122219 12.0945 -0.122219 13.1173 0.366657C13.5617 0.579039 13.9688 0.926338 14.5326 1.40722C14.5619 1.43219 14.5916 1.45751 14.6218 1.48319C14.8955 1.71651 14.9817 1.78825 15.069 1.84673C15.291 1.99547 15.5402 2.09869 15.8022 2.15044C15.9053 2.17079 16.017 2.18102 16.3755 2.20964C16.415 2.2128 16.454 2.21588 16.4922 2.21891C17.2309 2.27753 17.7644 2.31986 18.2287 2.4839C19.2978 2.86145 20.1385 3.70225 20.5161 4.77117C20.6801 5.23557 20.7224 5.76904 20.781 6.50773C20.7842 6.54607 20.7871 6.58497 20.7904 6.62444C20.819 6.98302 20.8292 7.09472 20.8496 7.19777C20.9012 7.45986 21.0045 7.70907 21.1532 7.93099C21.2117 8.01824 21.2835 8.10447 21.5168 8.37826C21.5425 8.4084 21.5678 8.43809 21.5927 8.46736C22.0736 9.03113 22.4209 9.43827 22.6334 9.88263C23.1222 10.9054 23.1222 12.0945 22.6334 13.1173C22.4209 13.5617 22.0736 13.9688 21.5927 14.5326C21.5678 14.5619 21.5425 14.5915 21.5168 14.6218C21.2835 14.8955 21.2117 14.9817 21.1532 15.069C21.0045 15.291 20.9012 15.5402 20.8496 15.8022C20.8292 15.9053 20.819 16.017 20.7904 16.3755C20.7871 16.415 20.7842 16.454 20.781 16.4922C20.7224 17.2309 20.6801 17.7644 20.5161 18.2287C20.1385 19.2978 19.2978 20.1385 18.2287 20.5161C17.7644 20.6801 17.2309 20.7224 16.4922 20.781C16.454 20.7842 16.415 20.7871 16.3755 20.7904C16.017 20.819 15.9053 20.8292 15.8022 20.8496C15.5402 20.9012 15.291 21.0045 15.069 21.1532C14.9817 21.2117 14.8955 21.2835 14.6218 21.5168C14.5915 21.5425 14.5619 21.5678 14.5326 21.5927C13.9688 22.0736 13.5617 22.4209 13.1173 22.6334C12.0945 23.1222 10.9054 23.1222 9.88263 22.6334C9.43827 22.4209 9.03111 22.0736 8.46733 21.5927C8.43807 21.5678 8.40839 21.5425 8.37826 21.5168C8.10446 21.2835 8.01824 21.2117 7.93099 21.1532C7.70907 21.0045 7.45986 20.9012 7.19777 20.8496C7.09472 20.8292 6.98302 20.819 6.62444 20.7904C6.58497 20.7871 6.54608 20.7842 6.50773 20.781C5.76904 20.7224 5.23557 20.6801 4.77117 20.5161C3.70225 20.1385 2.86145 19.2978 2.4839 18.2287C2.31986 17.7644 2.27753 17.2309 2.21891 16.4922C2.21588 16.454 2.2128 16.415 2.20964 16.3755C2.18102 16.017 2.17079 15.9053 2.15044 15.8022C2.09869 15.5402 1.99547 15.291 1.84673 15.069C1.78825 14.9817 1.71651 14.8955 1.48319 14.6218C1.45751 14.5916 1.43219 14.5619 1.40723 14.5326C0.926338 13.9689 0.579039 13.5617 0.366657 13.1173C-0.122219 12.0945 -0.122219 10.9054 0.366657 9.88263C0.579039 9.43827 0.926338 9.03111 1.40722 8.46734C1.43218 8.43808 1.4575 8.40839 1.48319 8.37826C1.71651 8.10446 1.78825 8.01824 1.84673 7.93099C1.99547 7.70907 2.09869 7.45986 2.15044 7.19777C2.17079 7.09472 2.18102 6.98302 2.20964 6.62444C2.2128 6.58497 2.21588 6.54608 2.21891 6.50773C2.27753 5.76905 2.31986 5.23557 2.4839 4.77117C2.86145 3.70225 3.70225 2.86145 4.77117 2.4839C5.23557 2.31986 5.76905 2.27753 6.50773 2.21891C6.54608 2.21588 6.58497 2.2128 6.62444 2.20964C6.98302 2.18102 7.09472 2.17079 7.19777 2.15044C7.45986 2.09869 7.70907 1.99547 7.93099 1.84673C8.01824 1.78825 8.10446 1.71651 8.37826 1.48319C8.40839 1.4575 8.43807 1.43219 8.46734 1.40722C9.03111 0.926338 9.43827 0.579039 9.88263 0.366657ZM12.3709 1.92844C11.8201 1.66519 11.1798 1.66519 10.6291 1.92844C10.4162 2.0302 10.1917 2.21205 9.50106 2.80067C9.48968 2.81035 9.47852 2.81988 9.46748 2.8293C9.2407 3.02254 9.07528 3.16361 8.89473 3.28463C8.48261 3.56085 8.01978 3.75256 7.53304 3.84866C7.3198 3.89076 7.10305 3.90801 6.80612 3.93165C6.79165 3.9328 6.77699 3.93396 6.76213 3.93515C5.8575 4.00734 5.5702 4.03746 5.34768 4.11607C4.7721 4.31936 4.31936 4.7721 4.11607 5.34768C4.03746 5.5702 4.00734 5.8575 3.93515 6.76213C3.93396 6.77699 3.9328 6.79165 3.93165 6.80612C3.90801 7.10305 3.89076 7.3198 3.84866 7.53304C3.75256 8.01978 3.56085 8.48261 3.28463 8.89473C3.16361 9.07528 3.02254 9.2407 2.82929 9.46748C2.81988 9.47852 2.81033 9.48968 2.80067 9.50106C2.21205 10.1917 2.0302 10.4162 1.92844 10.6291C1.66519 11.1798 1.66519 11.8201 1.92844 12.3709C2.0302 12.5837 2.21205 12.8082 2.80067 13.4989C2.81035 13.5103 2.81988 13.5215 2.8293 13.5325C3.02254 13.7593 3.16361 13.9246 3.28463 14.1052C3.56085 14.5174 3.75256 14.9802 3.84866 15.4669C3.89076 15.6801 3.90801 15.8969 3.93165 16.1938C3.9328 16.2083 3.93396 16.223 3.93515 16.2379C4.00734 17.1425 4.03746 17.4297 4.11607 17.6522C4.31936 18.2278 4.7721 18.6806 5.34768 18.8839C5.5702 18.9626 5.8575 18.9927 6.76213 19.0648L6.80611 19.0684C7.10306 19.0919 7.31981 19.1092 7.53304 19.1513C8.01978 19.2474 8.48261 19.4391 8.89473 19.7153C9.07528 19.8363 9.2407 19.9774 9.46748 20.1706L9.50106 20.1993C10.1917 20.7879 10.4162 20.9698 10.6291 21.0715C11.1798 21.3348 11.8201 21.3348 12.3709 21.0715C12.5837 20.9698 12.8082 20.7879 13.4989 20.1993L13.5326 20.1706C13.7593 19.9774 13.9246 19.8363 14.1052 19.7153C14.5174 19.4391 14.9802 19.2474 15.4669 19.1513C15.6801 19.1092 15.8969 19.0919 16.1938 19.0684L16.2379 19.0648C17.1425 18.9927 17.4297 18.9626 17.6522 18.8839C18.2278 18.6806 18.6806 18.2278 18.8839 17.6522C18.9626 17.4297 18.9927 17.1425 19.0648 16.2379L19.0684 16.1938C19.0919 15.8969 19.1092 15.6801 19.1513 15.4669C19.2474 14.9802 19.4391 14.5174 19.7153 14.1052C19.8363 13.9246 19.9774 13.7593 20.1706 13.5326L20.1993 13.4989C20.7879 12.8082 20.9698 12.5837 21.0715 12.3709C21.3348 11.8201 21.3348 11.1798 21.0715 10.6291C20.9698 10.4162 20.7879 10.1917 20.1993 9.50106L20.1706 9.46737C19.9774 9.2407 19.8363 9.07527 19.7153 8.89473C19.4391 8.48261 19.2474 8.01978 19.1513 7.53304C19.1092 7.3198 19.0919 7.10306 19.0684 6.80611L19.0648 6.76213C18.9927 5.8575 18.9626 5.5702 18.8839 5.34768C18.6806 4.7721 18.2278 4.31936 17.6522 4.11607C17.4297 4.03746 17.1425 4.00734 16.2379 3.93515C16.223 3.93396 16.2083 3.9328 16.1938 3.93165C15.8969 3.90801 15.6801 3.89076 15.4669 3.84866C14.9802 3.75256 14.5174 3.56085 14.1052 3.28463C13.9246 3.16361 13.7593 3.02254 13.5325 2.82929C13.5215 2.81988 13.5103 2.81033 13.4989 2.80067C12.8082 2.21205 12.5837 2.0302 12.3709 1.92844Z" fill="#737791"/>
<path fill-rule="evenodd" clip-rule="evenodd" d="M15.574 7.42599C15.912 7.76399 15.912 8.312 15.574 8.64999L8.64999 15.574C8.312 15.912 7.76399 15.912 7.42599 15.574C7.088 15.236 7.088 14.688 7.42599 14.35L14.35 7.42599C14.688 7.088 15.236 7.088 15.574 7.42599Z" fill="#737791"/>
<path d="M15.539 14.385C15.539 15.0223 15.0223 15.539 14.385 15.539C13.7477 15.539 13.231 15.0223 13.231 14.385C13.231 13.7477 13.7477 13.231 14.385 13.231C15.0223 13.231 15.539 13.7477 15.539 14.385Z" fill="#737791"/>
<path d="M9.76901 8.615C9.76901 9.25231 9.25231 9.76901 8.615 9.76901C7.97766 9.76901 7.461 9.25231 7.461 8.615C7.461 7.97766 7.97766 7.461 8.615 7.461C9.25231 7.461 9.76901 7.97766 9.76901 8.615Z" fill="#737791"/>
</svg>
