<svg width="22" height="22" viewBox="0 0 22 22" fill="none" xmlns="http://www.w3.org/2000/svg">
<g clip-path="url(#clip0_159_14983)">
<path d="M13.2454 4.86216H16.063L16.0633 8.14943L17.4917 5.93146V4.07225C17.4917 3.95869 17.4465 3.84979 17.3662 3.76912L13.7224 0.125452C13.6421 0.0452048 13.5332 0 13.4194 0H2.15298C1.44406 0 0.867188 0.576609 0.867188 1.28559V20.7144C0.867188 21.4233 1.44401 22 2.15298 22H16.2059C16.9148 22 17.4916 21.4233 17.4916 20.7144V15.1983L16.0635 17.3837L16.0637 20.5713H2.29583V1.42864H12.7147V4.33143C12.7147 4.62471 12.9523 4.86216 13.2454 4.86216Z" fill="#737791"/>
<path d="M19.0876 10.2208L18.4973 9.83503C18.4009 9.77212 18.2719 9.79909 18.2089 9.89547L15.03 14.7599L14.4187 14.3605L17.5976 9.49602C17.6606 9.39958 17.6336 9.27057 17.5372 9.20761L16.9468 8.82182C16.8504 8.75886 16.7213 8.78589 16.6584 8.88227L11.8986 16.166C11.8784 16.197 11.8668 16.2327 11.8649 16.2697L11.7405 18.7975C11.7369 18.8713 11.7726 18.9417 11.8346 18.982C11.8966 19.0225 11.9754 19.027 12.0415 18.9941L14.3066 17.8651C14.3398 17.8487 14.3679 17.8236 14.3882 17.7926L19.1479 10.5089C19.2111 10.4128 19.1839 10.2838 19.0876 10.2208Z" fill="#737791"/>
<path d="M21.0378 7.23616L18.897 5.83717C18.8007 5.77426 18.6716 5.80129 18.6086 5.89761L17.1648 8.10699C17.1019 8.20337 17.1289 8.33254 17.2253 8.3955L19.366 9.79439C19.4623 9.85735 19.5915 9.83032 19.6544 9.73394L21.0982 7.52462C21.1612 7.42824 21.1341 7.29912 21.0378 7.23616Z" fill="#737791"/>
<path d="M4.37733 4.58131H8.46304C8.75234 4.58131 8.98685 4.34675 8.98685 4.0575C8.98685 3.76825 8.75234 3.53369 8.46304 3.53369H4.37733C4.08803 3.53369 3.85352 3.76825 3.85352 4.0575C3.85352 4.34675 4.08813 4.58131 4.37733 4.58131Z" fill="#737791"/>
<path d="M12.1297 6.67664C12.1297 6.38739 11.8951 6.15283 11.6059 6.15283H4.37733C4.08803 6.15283 3.85352 6.38739 3.85352 6.67664C3.85352 6.96589 4.08803 7.20045 4.37733 7.20045H11.6059C11.8952 7.20045 12.1297 6.96589 12.1297 6.67664Z" fill="#737791"/>
<path d="M4.37733 9.81947H8.46304C8.75234 9.81947 8.98685 9.58491 8.98685 9.29566C8.98685 9.00641 8.75234 8.77185 8.46304 8.77185H4.37733C4.08803 8.77185 3.85352 9.00641 3.85352 9.29566C3.85352 9.58491 4.08813 9.81947 4.37733 9.81947Z" fill="#737791"/>
<path d="M4.37733 12.4385H8.46304C8.75234 12.4385 8.98685 12.2039 8.98685 11.9147C8.98685 11.6255 8.75234 11.3909 8.46304 11.3909H4.37733C4.08803 11.3909 3.85352 11.6255 3.85352 11.9147C3.85352 12.2039 4.08813 12.4385 4.37733 12.4385Z" fill="#737791"/>
<path d="M4.59756 19.2078C4.49558 19.3396 4.67954 19.5264 4.78278 19.3929C5.10822 18.9725 5.37699 18.5196 5.60144 18.0417C5.74151 18.1297 5.92542 18.1121 6.07628 18.0524C6.29371 17.9667 6.47804 17.8012 6.65357 17.6515C6.75733 17.5629 6.87812 17.4168 7.02175 17.4028C7.13144 17.3922 7.27957 17.4806 7.38921 17.4994C7.67568 17.5482 8.01029 17.4653 8.28686 17.3969C8.54934 17.3321 8.85671 17.2296 9.01118 16.9919C9.10353 16.8499 8.87667 16.7187 8.78505 16.8599C8.66138 17.0501 8.35941 17.1094 8.15533 17.1598C7.91579 17.2191 7.63786 17.2775 7.39099 17.2354C7.20493 17.2037 7.05444 17.0912 6.86314 17.1764C6.6069 17.2906 6.41115 17.5306 6.18486 17.6926C6.08361 17.7651 5.9679 17.8348 5.84124 17.8445C5.78912 17.8486 5.74664 17.8295 5.71134 17.7976C5.73921 17.733 5.76686 17.668 5.79321 17.6025C6.04862 16.9685 6.16412 16.3246 6.28266 15.6568C6.3429 15.3174 6.4431 14.7826 5.95669 14.75C5.52691 14.7213 5.15547 15.3412 5.01813 15.6679C4.8953 15.9601 4.88162 16.2995 4.891 16.6115C4.89682 16.8059 4.9668 17.0078 5.01839 17.2089C4.60594 17.275 4.24242 17.6916 4.30612 18.1046C4.36882 18.5109 4.87696 18.3011 5.06674 18.1507C5.25882 17.9985 5.321 17.8085 5.32304 17.6034C5.36133 17.6666 5.39333 17.7422 5.42644 17.8131C5.20513 18.3095 4.92767 18.7813 4.59756 19.2078ZM5.05663 17.7254C5.01787 17.8981 4.79928 18.0687 4.62716 18.0846C4.49175 18.0972 4.57436 17.8553 4.60112 17.8013C4.68514 17.6315 4.89331 17.5206 5.06831 17.4729C5.07648 17.5581 5.07517 17.6425 5.05663 17.7254ZM5.27537 17.2183C5.2308 17.01 5.16893 16.8009 5.15291 16.6116C5.1219 16.2462 5.1868 15.8633 5.36798 15.5438C5.48118 15.3441 5.71192 15.0381 5.95669 15.0119C6.17528 14.9887 6.04197 15.5203 6.02306 15.6271C5.96455 15.9568 5.9228 16.284 5.84124 16.6099C5.7655 16.9126 5.66954 17.2123 5.55477 17.5054C5.49375 17.3535 5.41429 17.2563 5.27537 17.2183Z" fill="#737791"/>
</g>
<defs>
<clipPath id="clip0_159_14983">
<rect width="22" height="22" fill="white"/>
</clipPath>
</defs>
</svg>
