<svg width="19" height="17" viewBox="0 0 19 17" fill="none" xmlns="http://www.w3.org/2000/svg">
<path d="M1 1H4.09091L6.16182 10.5643C6.23248 10.8932 6.42602 11.1886 6.70856 11.3988C6.9911 11.6091 7.34463 11.7208 7.70727 11.7143H15.2182C15.5808 11.7208 15.9344 11.6091 16.2169 11.3988C16.4994 11.1886 16.693 10.8932 16.7636 10.5643L18 4.57144H4.86364M7.95448 15.2857C7.95448 15.6802 7.60852 16 7.18176 16C6.75499 16 6.40903 15.6802 6.40903 15.2857C6.40903 14.8912 6.75499 14.5714 7.18176 14.5714C7.60852 14.5714 7.95448 14.8912 7.95448 15.2857ZM16.4545 15.2857C16.4545 15.6802 16.1086 16 15.6818 16C15.255 16 14.9091 15.6802 14.9091 15.2857C14.9091 14.8912 15.255 14.5714 15.6818 14.5714C16.1086 14.5714 16.4545 14.8912 16.4545 15.2857Z" stroke="#464646" stroke-width="2" stroke-linecap="round" stroke-linejoin="round"/>
</svg>
