<svg width="25" height="25" viewBox="0 0 25 25" fill="none" xmlns="http://www.w3.org/2000/svg">
<g clip-path="url(#clip0_186_27884)">
<path d="M5.72697 3.85156H24.0406C24.3729 3.85156 24.627 4.10565 24.627 4.43791V15.8326C24.627 16.1649 24.3729 16.419 24.0406 16.419H5.72697C5.39471 16.419 5.14062 16.1649 5.14062 15.8326V4.43791C5.14062 4.10565 5.39471 3.85156 5.72697 3.85156Z" fill="#9DBE87"/>
<path d="M24.0409 16.8102H5.72725C5.17999 16.8102 4.75 16.3802 4.75 15.8329V4.43819C4.75 3.89093 5.17999 3.46094 5.72725 3.46094H24.0409C24.5881 3.46094 25.0181 3.89093 25.0181 4.43819V15.8329C25.0181 16.3606 24.5881 16.8102 24.0409 16.8102ZM5.72725 4.24274C5.60998 4.24274 5.5318 4.32092 5.5318 4.43819V15.8329C5.5318 15.9502 5.60998 16.0284 5.72725 16.0284H24.0409C24.1582 16.0284 24.2363 15.9502 24.2363 15.8329V4.43819C24.2363 4.32092 24.1582 4.24274 24.0409 4.24274H5.72725Z" fill="#131313"/>
<path d="M4.06682 5.51172H22.4C22.7323 5.51172 22.9863 5.7658 22.9863 6.09807V17.4928C22.9863 17.825 22.7323 18.0791 22.4 18.0791H4.06682C3.73455 18.0791 3.48047 17.825 3.48047 17.4928V6.09807C3.48047 5.7658 3.73455 5.51172 4.06682 5.51172Z" fill="#9DBE87"/>
<path d="M22.3788 18.4703H4.06514C3.51788 18.4703 3.08789 18.0403 3.08789 17.4931V6.09834C3.08789 5.55108 3.51788 5.12109 4.06514 5.12109H22.3983C22.9456 5.12109 23.3756 5.55108 23.3756 6.09834V17.4931C23.356 18.0208 22.926 18.4703 22.3788 18.4703ZM4.06514 5.90289C3.94787 5.90289 3.86969 5.98107 3.86969 6.09834V17.4931C3.86969 17.6103 3.94787 17.6885 4.06514 17.6885H22.3983C22.5156 17.6885 22.5938 17.6103 22.5938 17.4931V6.09834C22.5938 5.98107 22.5156 5.90289 22.3983 5.90289H4.06514Z" fill="#131313"/>
<path d="M2.53947 7.13477H20.8727C21.2049 7.13477 21.459 7.38885 21.459 7.72111V19.1158C21.459 19.4481 21.2049 19.7022 20.8727 19.7022H2.53947C2.20721 19.7022 1.95312 19.4481 1.95312 19.1158V7.72111C1.95312 7.4084 2.20721 7.13477 2.53947 7.13477Z" fill="#9DBE87"/>
<path d="M20.8749 20.0934H2.5417C1.99444 20.0934 1.56445 19.6634 1.56445 19.1161V7.72139C1.56445 7.17413 1.99444 6.74414 2.5417 6.74414H20.8749C21.4221 6.74414 21.8521 7.17413 21.8521 7.72139V19.1161C21.8521 19.6438 21.4026 20.0934 20.8749 20.0934ZM2.5417 7.52594C2.42443 7.52594 2.34625 7.60412 2.34625 7.72139V19.1161C2.34625 19.2334 2.42443 19.3116 2.5417 19.3116H20.8749C20.9922 19.3116 21.0703 19.2334 21.0703 19.1161V7.72139C21.0703 7.60412 20.9922 7.52594 20.8749 7.52594H2.5417Z" fill="#131313"/>
<path d="M0.976974 8.58203H19.3102C19.6424 8.58203 19.8965 8.83612 19.8965 9.16838V20.5631C19.8965 20.8954 19.6424 21.1494 19.3102 21.1494H0.976974C0.64471 21.1494 0.390625 20.8954 0.390625 20.5631V9.16838C0.390625 8.85566 0.64471 8.58203 0.976974 8.58203Z" fill="#9DBE87"/>
<path d="M19.3104 21.5387H0.977248C0.429989 21.5387 0 21.1087 0 20.5614V9.1667C0 8.61944 0.429989 8.18945 0.977248 8.18945H19.3104C19.8577 8.18945 20.2877 8.61944 20.2877 9.1667V20.5614C20.2877 21.1087 19.8381 21.5387 19.3104 21.5387ZM0.977248 8.97125C0.859979 8.97125 0.781799 9.04943 0.781799 9.1667V20.5614C0.781799 20.6787 0.859979 20.7569 0.977248 20.7569H19.3104C19.4277 20.7569 19.5059 20.6787 19.5059 20.5614V9.1667C19.5059 9.04943 19.4277 8.97125 19.3104 8.97125H0.977248Z" fill="#131313"/>
<path d="M16.8465 19.3893H3.43868C3.43868 18.4707 2.67643 17.7084 1.75781 17.7084V11.8059C2.67643 11.8059 3.43868 11.0436 3.43868 10.125H16.8465C16.8465 11.0436 17.6088 11.8059 18.5274 11.8059V17.7084C17.5892 17.7084 16.8465 18.4707 16.8465 19.3893Z" fill="#D6F0C5"/>
<path d="M16.8468 19.7805H3.43895C3.22396 19.7805 3.04805 19.6046 3.04805 19.3896C3.04805 18.686 2.46171 18.0996 1.75809 18.0996C1.54309 18.0996 1.36719 17.9237 1.36719 17.7087V11.8061C1.36719 11.5911 1.54309 11.4152 1.75809 11.4152C2.46171 11.4152 3.04805 10.8289 3.04805 10.1253C3.04805 9.91028 3.22396 9.73437 3.43895 9.73438H16.8468C17.0618 9.73438 17.2377 9.91028 17.2377 10.1253C17.2377 10.8289 17.8241 11.4152 18.5277 11.4152C18.7427 11.4152 18.9186 11.5911 18.9186 11.8061V17.7087C18.9186 17.9237 18.7427 18.0996 18.5277 18.0996C17.8241 18.0996 17.2377 18.686 17.2377 19.3896C17.2377 19.6046 17.0618 19.7805 16.8468 19.7805ZM3.79076 18.9987H16.4754C16.6318 18.1778 17.2963 17.5133 18.1172 17.3569V12.158C17.2963 12.0016 16.6318 11.3371 16.4754 10.5162H3.79076C3.6344 11.3371 2.96987 12.0016 2.14899 12.158V17.3374C2.96987 17.5133 3.6344 18.1778 3.79076 18.9987Z" fill="#131313"/>
<path d="M10.1829 17.4161C9.55751 17.4161 8.89298 17.1815 8.4239 16.5756C8.28708 16.3997 8.32617 16.1652 8.48253 16.0284C8.65844 15.8915 8.89298 15.9306 9.02979 16.087C9.49887 16.6929 10.222 16.7124 10.6911 16.5561C11.082 16.4193 11.3166 16.1652 11.3166 15.8915C11.3166 15.6375 10.7107 15.4616 10.1829 15.3052C9.36206 15.0511 8.32617 14.7579 8.32617 13.7807C8.32617 13.3116 8.61935 12.8816 9.12752 12.6275C9.75295 12.3148 10.8084 12.1975 11.8052 12.9207C11.9811 13.0575 12.0202 13.2921 11.8834 13.468C11.7465 13.6439 11.512 13.683 11.3361 13.5461C10.6716 13.0575 9.92886 13.0771 9.47932 13.3116C9.24479 13.4289 9.08843 13.6048 9.08843 13.7807C9.08843 14.152 9.63569 14.3279 10.3784 14.5625C11.1797 14.797 12.0593 15.0707 12.0593 15.8915C12.0593 16.4974 11.6097 17.0447 10.9061 17.2988C10.7107 17.3574 10.437 17.4161 10.1829 17.4161Z" fill="#131313"/>
<path d="M10.1448 13.1554C9.92981 13.1554 9.75391 12.9795 9.75391 12.7646V11.9046C9.75391 11.6896 9.92981 11.5137 10.1448 11.5137C10.3598 11.5137 10.5357 11.6896 10.5357 11.9046V12.7646C10.5357 12.9991 10.3598 13.1554 10.1448 13.1554Z" fill="#131313"/>
<path d="M10.1448 18.1592C9.92981 18.1592 9.75391 17.9833 9.75391 17.7683V17.1233C9.75391 16.9083 9.92981 16.7324 10.1448 16.7324C10.3598 16.7324 10.5357 16.9083 10.5357 17.1233V17.7683C10.5357 17.9833 10.3598 18.1592 10.1448 18.1592Z" fill="#131313"/>
<path d="M4.32031 14.9927C4.32031 15.0877 4.33902 15.1817 4.37536 15.2694C4.4117 15.3572 4.46497 15.4369 4.53212 15.504C4.59927 15.5712 4.679 15.6245 4.76673 15.6608C4.85447 15.6972 4.94851 15.7159 5.04348 15.7159C5.13844 15.7159 5.23248 15.6972 5.32022 15.6608C5.40796 15.6245 5.48768 15.5712 5.55483 15.504C5.62198 15.4369 5.67525 15.3572 5.71159 15.2694C5.74794 15.1817 5.76664 15.0877 5.76664 14.9927C5.76664 14.8009 5.69045 14.617 5.55483 14.4813C5.41921 14.3457 5.23527 14.2695 5.04348 14.2695C4.85168 14.2695 4.66774 14.3457 4.53212 14.4813C4.3965 14.617 4.32031 14.8009 4.32031 14.9927Z" fill="#AECD99"/>
<path d="M5.0418 16.0855C4.4359 16.0855 3.92773 15.5969 3.92773 14.9715C3.92773 14.346 4.41636 13.8574 5.0418 13.8574C5.64769 13.8574 6.15586 14.346 6.15586 14.9715C6.15586 15.5969 5.64769 16.0855 5.0418 16.0855ZM5.0418 14.6588C4.86589 14.6588 4.70953 14.7956 4.70953 14.991C4.70953 15.1865 4.84635 15.3233 5.0418 15.3233C5.2177 15.3233 5.37406 15.1865 5.37406 14.991C5.37406 14.7956 5.2177 14.6588 5.0418 14.6588Z" fill="#131313"/>
<path d="M14.5605 14.9927C14.5605 15.1845 14.6367 15.3684 14.7724 15.504C14.908 15.6397 15.0919 15.7159 15.2837 15.7159C15.4755 15.7159 15.6594 15.6397 15.7951 15.504C15.9307 15.3684 16.0069 15.1845 16.0069 14.9927C16.0069 14.8009 15.9307 14.617 15.7951 14.4813C15.6594 14.3457 15.4755 14.2695 15.2837 14.2695C15.0919 14.2695 14.908 14.3457 14.7724 14.4813C14.6367 14.617 14.5605 14.8009 14.5605 14.9927Z" fill="#AECD99"/>
<path d="M15.284 16.0855C14.6781 16.0855 14.1699 15.5969 14.1699 14.9715C14.1699 14.346 14.6585 13.8574 15.284 13.8574C15.8899 13.8574 16.398 14.346 16.398 14.9715C16.398 15.5969 15.8899 16.0855 15.284 16.0855ZM15.284 14.6588C15.1081 14.6588 14.9517 14.7956 14.9517 14.991C14.9517 15.1865 15.0885 15.3233 15.284 15.3233C15.4794 15.3233 15.6162 15.1865 15.6162 14.991C15.6162 14.7956 15.4599 14.6588 15.284 14.6588Z" fill="#131313"/>
</g>
<defs>
<clipPath id="clip0_186_27884">
<rect width="25" height="25" fill="white"/>
</clipPath>
</defs>
</svg>
