<svg width="24" height="24" viewBox="0 0 24 24" fill="none" xmlns="http://www.w3.org/2000/svg">
<path d="M11.9999 19.29C14.5546 19.29 16.3109 18.9581 16.3377 18.6393C16.4489 17.3071 14.7202 16.6114 14.023 16.3502C13.6491 16.2103 13.1048 15.8022 13.1048 15.5485C13.1048 15.3804 13.1048 15.1702 13.1048 14.8822C13.3209 14.6423 13.4842 14.1542 13.5821 13.6017C13.8098 13.5203 13.9396 13.3897 14.1022 12.8213C14.2752 12.2152 13.8421 12.2353 13.8421 12.2353C14.1922 11.0768 13.7317 9.98795 12.9597 10.0675C12.4273 9.13675 10.6442 10.2804 10.0858 10.2007C10.0858 10.5203 10.2187 10.7595 10.2187 10.7595C10.0244 11.1289 10.0992 11.864 10.1535 12.2353C10.1223 12.2353 9.73092 12.239 9.89723 12.8213C10.059 13.3897 10.1893 13.5203 10.417 13.6017C10.5144 14.1542 10.6781 14.6423 10.895 14.8822C10.895 15.1702 10.895 15.3804 10.895 15.5485C10.895 15.8022 10.3161 16.2304 9.97575 16.3502C9.27482 16.5969 7.55015 17.3071 7.66139 18.6393C7.68815 18.9581 9.44442 19.29 11.9999 19.29Z" fill="#737791"/>
<path d="M18.9835 2.6665H15.4289V3.42841C15.4289 4.89864 14.2324 6.09508 12.7622 6.09508H11.2384C9.76811 6.09508 8.57172 4.89864 8.57172 3.42841V2.6665H5.017C3.82431 2.6665 2.85742 3.63339 2.85742 4.82608V21.8403C2.85742 23.0329 3.82431 23.9998 5.017 23.9998H18.9835C20.1762 23.9998 21.1431 23.0329 21.1431 21.8403V4.82608C21.1432 3.63339 20.1763 2.6665 18.9835 2.6665ZM18.8575 21.7141H5.14314V7.04744H18.8575V21.7141Z" fill="#737791"/>
<path d="M11.2388 5.33334H12.7626C13.8128 5.33334 14.6673 4.47881 14.6673 3.42858V1.90477C14.6673 0.854531 13.8128 0 12.7626 0H11.2388C10.1885 0 9.33398 0.854531 9.33398 1.90477V3.42858C9.33398 4.47877 10.1885 5.33334 11.2388 5.33334ZM10.8578 1.90477C10.8578 1.6942 11.0281 1.52381 11.2388 1.52381H12.7626C12.9731 1.52381 13.1435 1.6942 13.1435 1.90477V2.66667C13.1435 2.87723 12.9731 3.04762 12.7626 3.04762H11.2388C11.0281 3.04762 10.8578 2.87723 10.8578 2.66667V1.90477Z" fill="#737791"/>
</svg>
