<svg width="23" height="23" viewBox="0 0 23 23" fill="none" xmlns="http://www.w3.org/2000/svg">
<path d="M13.8471 5.08316H16.7928L16.7931 8.51986L18.2865 6.20107V4.25735C18.2865 4.13863 18.2392 4.02478 18.1553 3.94045L14.3458 0.131155C14.2619 0.0472595 14.148 0 14.029 0H2.25049C1.50934 0 0.90625 0.602819 0.90625 1.34402V21.656C0.90625 22.3971 1.50929 23 2.25049 23H16.9422C17.6833 23 18.2863 22.3971 18.2863 21.656L18.2865 6.20107L16.7933 8.36364L16.7935 21.5064H2.39983V1.49358H13.2923V4.52832C13.2923 4.83493 13.5406 5.08316 13.8471 5.08316Z" fill="#737791"/>
<path d="M4.57496 4.78957H8.84639C9.14884 4.78957 9.39401 4.54435 9.39401 4.24195C9.39401 3.93956 9.14884 3.69434 8.84639 3.69434H4.57496C4.27251 3.69434 4.02734 3.93956 4.02734 4.24195C4.02734 4.54435 4.27262 4.78957 4.57496 4.78957Z" fill="#737791"/>
<path d="M12.6797 6.98024C12.6797 6.67784 12.4344 6.43262 12.1321 6.43262H4.57496C4.27251 6.43262 4.02734 6.67784 4.02734 6.98024C4.02734 7.28263 4.27251 7.52786 4.57496 7.52786H12.1321C12.4346 7.52786 12.6797 7.28263 12.6797 6.98024Z" fill="#737791"/>
<path d="M4.57496 10.2656H8.84639C9.14884 10.2656 9.39401 10.0204 9.39401 9.71803C9.39401 9.41563 9.14884 9.17041 8.84639 9.17041H4.57496C4.27251 9.17041 4.02734 9.41563 4.02734 9.71803C4.02734 10.0204 4.27262 10.2656 4.57496 10.2656Z" fill="#737791"/>
<path d="M4.57496 13.0034H8.84639C9.14884 13.0034 9.39401 12.7582 9.39401 12.4558C9.39401 12.1535 9.14884 11.9082 8.84639 11.9082H4.57496C4.27251 11.9082 4.02734 12.1535 4.02734 12.4558C4.02734 12.7582 4.27262 13.0034 4.57496 13.0034Z" fill="#737791"/>
</svg>
