<svg width="22" height="22" viewBox="0 0 22 22" fill="none" xmlns="http://www.w3.org/2000/svg">
<path d="M21 11H18.7778C17.5505 11 16.5556 11.9949 16.5556 13.2222V15.4444C16.5556 16.6717 17.5505 17.6667 18.7778 17.6667C20.0051 17.6667 21 16.6717 21 15.4444V11ZM21 11C21 5.47715 16.5228 1 11 1C5.47715 1 1 5.47715 1 11M1 11V15.4444C1 16.6717 1.99492 17.6667 3.22222 17.6667C4.44952 17.6667 5.44444 16.6717 5.44444 15.4444V13.2222C5.44444 11.9949 4.44952 11 3.22222 11H1ZM21 13.2222V17.6667C21 19.8889 20.2593 21 18.7778 21C17.2963 21 15.4444 21 13.2222 21" stroke="#737791" stroke-width="2" stroke-linecap="round" stroke-linejoin="round"/>
</svg>
